<svg width="1034" height="721" viewBox="0 0 1034 721" fill="none" xmlns="http://www.w3.org/2000/svg">
<mask id="mask0_1251_1793" style="mask-type:alpha" maskUnits="userSpaceOnUse" x="0" y="0" width="1035" height="721">
<rect x="0.000488281" y="0.496094" width="1034" height="720" fill="#D9D9D9"/>
</mask>
<g mask="url(#mask0_1251_1793)">
<path fill-rule="evenodd" clip-rule="evenodd" d="M-157 604.269L-157 450.387L-157 34.054C-157 -38.1214 -213.134 -97.1711 -281.744 -97.1711L-429.256 -97.1711C-497.868 -97.1711 -554 -156.222 -554 -228.398L-554 -382.279C-554 -454.454 -497.868 -513.504 -429.256 -513.504L-281.744 -513.504C-213.134 -513.504 -157 -454.454 -157 -382.279L-157 -228.398C-157 -156.222 -100.867 -97.1711 -32.2556 -97.1711L115.257 -97.1711C181.451 -97.1711 236.026 -42.2001 239.786 26.488C239.631 29.1522 239.543 31.8358 239.543 34.5389L239.543 188.421C239.543 260.597 295.676 319.648 364.287 319.648L511.798 319.648C546.257 319.648 577.564 304.75 600.198 280.778C622.901 256.981 637 224.108 637 187.937L637 34.054C637 -38.1214 693.134 -97.1712 761.744 -97.1712L909.256 -97.1712C977.867 -97.1712 1034 -38.1214 1034 34.054L1034 187.937C1034 260.111 977.867 319.163 909.256 319.163L761.744 319.163C693.134 319.163 637 378.211 637 450.387L637 604.269C637 676.444 580.867 735.496 512.256 735.496L115.257 735.496L-32.2555 735.496C-100.867 735.496 -157 676.445 -157 604.269Z" fill="#84C32E"/>
<rect x="763.807" y="-749" width="727.782" height="1545.65" transform="rotate(50 763.807 -749)" fill="#0B7020"/>
<path fill-rule="evenodd" clip-rule="evenodd" d="M-171.75 589.425L-171.75 436.898L-171.75 24.2317C-171.75 -47.308 -227.919 -105.838 -296.572 -105.838L-444.177 -105.838C-512.832 -105.838 -569 -164.368 -569 -235.909L-569 -388.434C-569 -459.974 -512.832 -518.504 -444.177 -518.504L-296.572 -518.504C-227.919 -518.504 -171.75 -459.974 -171.75 -388.435L-171.75 -235.909C-171.75 -164.368 -115.582 -105.838 -46.927 -105.838L100.678 -105.838C166.914 -105.838 221.524 -51.3508 225.286 16.7323C225.131 19.373 225.042 22.0329 225.042 24.7122L225.042 177.24C225.042 248.779 281.211 307.311 349.865 307.311L497.469 307.311C531.95 307.311 563.277 292.544 585.925 268.783C608.642 245.195 622.75 212.612 622.75 176.759L622.75 24.2316C622.75 -47.3081 678.919 -105.838 747.572 -105.838L895.177 -105.838C963.832 -105.838 1020 -47.3081 1020 24.2316L1020 176.759C1020 248.297 963.832 306.83 895.177 306.83L747.572 306.83C678.919 306.83 622.75 365.358 622.75 436.898L622.75 589.425C622.75 660.964 566.582 719.496 497.927 719.496L100.678 719.496L-46.927 719.496C-115.582 719.496 -171.75 660.965 -171.75 589.425Z" fill="#0B661E"/>
<path d="M81.3522 28.9962H108.149C120.718 28.9962 131 39.2472 131 51.7767V78.7155C131 91.2449 120.718 101.496 108.149 101.496H81.3522C68.7837 101.496 58.5005 91.2449 58.5005 78.7155V51.7767C58.5005 39.2472 48.2178 28.9962 35.649 28.9962H8.85197C-3.71661 28.9962 -13.9995 18.745 -13.9995 6.21544V-20.7232C-13.9995 -33.2527 -3.71661 -43.5039 8.85197 -43.5039H35.649C48.2178 -43.5039 58.5005 -33.2527 58.5005 -20.7232V6.21544C58.5005 18.745 68.7837 28.9962 81.3522 28.9962Z" stroke="white" stroke-width="0.755867" stroke-miterlimit="22.9256"/>
</g>
</svg>
