<svg width="124" height="124" viewBox="0 0 124 124" fill="none" xmlns="http://www.w3.org/2000/svg">
<circle opacity="0.2" cx="62" cy="62" r="62" fill="#84C32E"/>
<g clip-path="url(#clip0_1277_1370)">
<path fill-rule="evenodd" clip-rule="evenodd" d="M80.6667 41H43.3334C40.7667 41 38.6667 43.1 38.6667 45.6667V78.3333C38.6667 80.9 40.7667 83 43.3334 83H80.6667C83.2334 83 85.3334 80.9 85.3334 78.3333V45.6667C85.3334 43.1 83.2334 41 80.6667 41ZM55 73.6667H48C46.7167 73.6667 45.6667 72.6167 45.6667 71.3333C45.6667 70.05 46.7167 69 48 69H55C56.2834 69 57.3334 70.05 57.3334 71.3333C57.3334 72.6167 56.2834 73.6667 55 73.6667ZM55 64.3333H48C46.7167 64.3333 45.6667 63.2833 45.6667 62C45.6667 60.7167 46.7167 59.6667 48 59.6667H55C56.2834 59.6667 57.3334 60.7167 57.3334 62C57.3334 63.2833 56.2834 64.3333 55 64.3333ZM55 55H48C46.7167 55 45.6667 53.95 45.6667 52.6667C45.6667 51.3833 46.7167 50.3333 48 50.3333H55C56.2834 50.3333 57.3334 51.3833 57.3334 52.6667C57.3334 53.95 56.2834 55 55 55ZM77.6334 59.9467L70.2367 67.3433C69.3267 68.2533 67.8334 68.2533 66.9234 67.3433L63.6334 64.03C62.7234 63.12 62.7234 61.65 63.6334 60.74C64.5434 59.83 66.0134 59.83 66.9234 60.74L68.58 62.3967L74.3434 56.6333C75.2534 55.7233 76.7234 55.7233 77.6334 56.6333L77.6567 56.6567C78.5434 57.5667 78.5434 59.06 77.6334 59.9467Z" fill="#84C32E"/>
</g>
<defs>
<clipPath id="clip0_1277_1370">
<rect width="56" height="56" fill="white" transform="translate(34 34)"/>
</clipPath>
</defs>
</svg>
