<svg width="124" height="124" viewBox="0 0 124 124" fill="none" xmlns="http://www.w3.org/2000/svg">
<circle opacity="0.2" cx="62" cy="62" r="62" fill="#84C32E"/>
<g clip-path="url(#clip0_1277_1376)">
<path d="M73.6667 59.6667V41H50.3333V50.3333H41V83H59.6667V73.6667H64.3333V83H83V59.6667H73.6667ZM50.3333 78.3333H45.6667V73.6667H50.3333V78.3333ZM50.3333 69H45.6667V64.3333H50.3333V69ZM50.3333 59.6667H45.6667V55H50.3333V59.6667ZM59.6667 69H55V64.3333H59.6667V69ZM59.6667 59.6667H55V55H59.6667V59.6667ZM59.6667 50.3333H55V45.6667H59.6667V50.3333ZM69 69H64.3333V64.3333H69V69ZM69 59.6667H64.3333V55H69V59.6667ZM69 50.3333H64.3333V45.6667H69V50.3333ZM78.3333 78.3333H73.6667V73.6667H78.3333V78.3333ZM78.3333 69H73.6667V64.3333H78.3333V69Z" fill="#84C32E"/>
</g>
<defs>
<clipPath id="clip0_1277_1376">
<rect width="56" height="56" fill="white" transform="translate(34 34)"/>
</clipPath>
</defs>
</svg>
