<svg width="32" height="32" viewBox="0 0 32 32" fill="none" xmlns="http://www.w3.org/2000/svg">
<rect x="1" y="1" width="30" height="30" rx="15" stroke="white" stroke-width="2"/>
<g clip-path="url(#clip0_1280_105)">
<path d="M23.6373 10.961C23.386 11.0725 23.1275 11.1666 22.8635 11.243C23.1761 10.8894 23.4145 10.4734 23.5599 10.0182C23.5926 9.91616 23.5588 9.80447 23.4749 9.73773C23.3911 9.67095 23.2747 9.66295 23.1825 9.71761C22.6217 10.0502 22.0167 10.2892 21.3823 10.429C20.7433 9.80457 19.8754 9.44922 18.9782 9.44922C17.0842 9.44922 15.5434 10.99 15.5434 12.8839C15.5434 13.0331 15.5528 13.1814 15.5715 13.3277C13.2213 13.1213 11.0364 11.9662 9.536 10.1257C9.48253 10.0601 9.40015 10.0248 9.31582 10.0315C9.23143 10.0381 9.15561 10.0857 9.11298 10.1588C8.80867 10.681 8.64779 11.2782 8.64779 11.8859C8.64779 12.7135 8.94328 13.4987 9.46524 14.1123C9.30653 14.0573 9.15252 13.9886 9.00552 13.907C8.92661 13.8631 8.8303 13.8638 8.7519 13.9087C8.67344 13.9537 8.62426 14.0364 8.62219 14.1267C8.62183 14.142 8.62183 14.1572 8.62183 14.1726C8.62183 15.408 9.28671 16.5202 10.3032 17.1264C10.2159 17.1177 10.1286 17.105 10.0419 17.0884C9.95252 17.0714 9.86059 17.1027 9.80031 17.1709C9.73992 17.239 9.71995 17.334 9.74777 17.4207C10.124 18.5954 11.0927 19.4594 12.2638 19.7229C11.2925 20.3312 10.1818 20.6499 9.01574 20.6499C8.77244 20.6499 8.52774 20.6356 8.28826 20.6073C8.16929 20.5931 8.05554 20.6634 8.01502 20.7765C7.9745 20.8897 8.01744 21.0159 8.11866 21.0808C9.61662 22.0412 11.3487 22.5489 13.1275 22.5489C16.6245 22.5489 18.8121 20.8999 20.0315 19.5165C21.552 17.7915 22.4241 15.5083 22.4241 13.2524C22.4241 13.1581 22.4226 13.0629 22.4197 12.9681C23.0196 12.5161 23.5361 11.9691 23.9564 11.3404C24.0202 11.2449 24.0133 11.1187 23.9394 11.0308C23.8655 10.9429 23.7424 10.9145 23.6373 10.961Z" fill="white"/>
</g>
<defs>
<clipPath id="clip0_1280_105">
<rect width="16" height="16" fill="white" transform="translate(8 8)"/>
</clipPath>
</defs>
</svg>
