<svg width="32" height="32" viewBox="0 0 32 32" fill="none" xmlns="http://www.w3.org/2000/svg">
<rect x="1" y="1" width="30" height="30" rx="15" stroke="white" stroke-width="2"/>
<g clip-path="url(#clip0_1280_110)">
<path d="M11.9614 8.00261C11.9589 8.00511 11.8664 8.01761 11.7564 8.02886C10.9289 8.11636 10.2101 8.40761 9.56888 8.91511C9.41138 9.04011 9.10388 9.34136 8.97138 9.50136C8.63888 9.90136 8.37888 10.3714 8.22138 10.8539C8.12013 11.1651 8.07138 11.3914 8.02888 11.7539C8.00763 11.9301 8.00638 12.1876 8.00638 15.9914C8.00638 20.4201 8.00263 20.1439 8.07513 20.5664C8.38513 22.3501 9.87763 23.7564 11.6676 23.9539C11.7639 23.9639 11.8889 23.9789 11.9439 23.9851C12.0801 24.0026 19.9201 24.0026 20.0564 23.9851C20.1114 23.9789 20.2364 23.9639 20.3326 23.9539C22.0001 23.7701 23.4264 22.5301 23.8501 20.8939C23.9076 20.6689 23.9426 20.4826 23.9614 20.2851C23.9701 20.2064 23.9814 20.1001 23.9876 20.0501C24.0051 19.9251 24.0039 12.0764 23.9876 11.9414C23.9814 11.8864 23.9664 11.7614 23.9564 11.6651C23.8764 10.9339 23.5789 10.2114 23.1126 9.60761C22.9814 9.43761 22.7014 9.14386 22.5451 9.01136C21.9601 8.51511 21.2626 8.18636 20.5376 8.06761C20.1401 8.00136 20.4089 8.00511 16.0239 8.00136C13.7926 7.99886 11.9651 8.00011 11.9614 8.00261ZM20.2089 9.37886C20.8939 9.46886 21.5276 9.80886 21.9726 10.3289C22.3139 10.7276 22.5264 11.1826 22.6214 11.7226C22.6426 11.8489 22.6439 12.0276 22.6439 16.0039V20.1539L22.6151 20.3139C22.5076 20.9076 22.2451 21.4164 21.8314 21.8289C21.4226 22.2389 20.9264 22.4964 20.3251 22.6126L20.1814 22.6401L16.0939 22.6451C13.0901 22.6476 11.9701 22.6451 11.8689 22.6351C10.6876 22.5126 9.70638 21.6489 9.43388 20.4914C9.35888 20.1739 9.36263 20.4326 9.36263 16.0039C9.36263 12.4339 9.36513 11.9314 9.38138 11.8014C9.53263 10.6426 10.3814 9.70136 11.5189 9.43136C11.8214 9.35886 11.5726 9.36261 15.9901 9.36136C19.5801 9.36011 20.0789 9.36261 20.2089 9.37886Z" fill="white"/>
<path d="M20.2001 10.6997C19.8751 10.7834 19.6176 11.0459 19.5426 11.3684C19.5151 11.4884 19.5176 11.6809 19.5489 11.8022C19.6214 12.0834 19.8401 12.3247 20.1114 12.4234C20.4514 12.5472 20.8051 12.4684 21.0626 12.2109C21.2439 12.0309 21.3251 11.8334 21.3251 11.5759C21.3251 11.3634 21.2676 11.1884 21.1439 11.0247C20.9301 10.7434 20.5439 10.6097 20.2001 10.6997Z" fill="white"/>
<path d="M15.7374 12.0456C14.6687 12.1256 13.6937 12.6144 13.0012 13.4181C12.1637 14.3906 11.8474 15.7044 12.1512 16.9494C12.2849 17.4981 12.5437 18.0256 12.8999 18.4744C13.0337 18.6431 13.3687 18.9794 13.5374 19.1119C14.1062 19.5631 14.7662 19.8431 15.4887 19.9431C15.6937 19.9719 16.1087 19.9806 16.3262 19.9631C17.4487 19.8681 18.4399 19.3319 19.1449 18.4369C19.6087 17.8481 19.8974 17.1044 19.9637 16.3256C19.9812 16.1081 19.9724 15.6931 19.9437 15.4881C19.8437 14.7656 19.5637 14.1056 19.1124 13.5369C18.9799 13.3681 18.6437 13.0319 18.4762 12.9006C17.7562 12.3319 16.8774 12.0281 15.9762 12.0394C15.8762 12.0406 15.7687 12.0431 15.7374 12.0456ZM16.3974 13.2556C17.2249 13.3756 17.9649 13.8669 18.3887 14.5806C18.6549 15.0269 18.7799 15.4781 18.7799 15.9994C18.7812 16.3169 18.7537 16.5081 18.6674 16.8019C18.3849 17.7681 17.5512 18.5306 16.5624 18.7294C16.2737 18.7869 15.8787 18.7981 15.6124 18.7569C14.6762 18.6119 13.9074 18.0444 13.5012 17.1994C13.3149 16.8106 13.2324 16.4444 13.2324 16.0056C13.2324 15.5581 13.3162 15.1931 13.5124 14.7931C13.7874 14.2281 14.2287 13.7869 14.7937 13.5119C15.1187 13.3531 15.4537 13.2619 15.8187 13.2319C15.9337 13.2231 16.2612 13.2356 16.3974 13.2556Z" fill="white"/>
</g>
<defs>
<clipPath id="clip0_1280_110">
<rect width="16" height="16" fill="white" transform="translate(8 8)"/>
</clipPath>
</defs>
</svg>
