<svg width="32" height="32" viewBox="0 0 32 32" fill="none" xmlns="http://www.w3.org/2000/svg">
<rect x="1" y="1" width="30" height="30" rx="15" stroke="white" stroke-width="2"/>
<g clip-path="url(#clip0_1280_117)">
<path d="M20.677 10.3398H11.323C9.48775 10.3398 8 11.8276 8 13.6628V18.3389C8 20.1741 9.48775 21.6618 11.323 21.6618H20.677C22.5122 21.6618 24 20.1741 24 18.3389V13.6628C24 11.8276 22.5122 10.3398 20.677 10.3398ZM18.4297 16.2284L14.0545 18.315C13.9379 18.3706 13.8033 18.2856 13.8033 18.1565V13.8527C13.8033 13.7217 13.9415 13.6368 14.0583 13.696L18.4335 15.9131C18.5636 15.9791 18.5613 16.1656 18.4297 16.2284Z" fill="white"/>
</g>
<defs>
<clipPath id="clip0_1280_117">
<rect width="16" height="16" fill="white" transform="translate(8 8)"/>
</clipPath>
</defs>
</svg>
