<svg width="32" height="32" viewBox="0 0 32 32" fill="none" xmlns="http://www.w3.org/2000/svg">
<rect x="1" y="1" width="30" height="30" rx="15" stroke="white" stroke-width="2"/>
<g clip-path="url(#clip0_1280_98)">
<path d="M11.7244 13.1484H8.51236C8.36981 13.1484 8.2543 13.264 8.2543 13.4065V23.7254C8.2543 23.8679 8.36981 23.9834 8.51236 23.9834H11.7244C11.8669 23.9834 11.9825 23.8679 11.9825 23.7254V13.4065C11.9825 13.264 11.8669 13.1484 11.7244 13.1484Z" fill="white"/>
<path d="M10.1195 8.01953C8.95081 8.01953 8 8.96931 8 10.1367C8 11.3047 8.95081 12.2548 10.1195 12.2548C11.2873 12.2548 12.2374 11.3046 12.2374 10.1367C12.2374 8.96931 11.2873 8.01953 10.1195 8.01953Z" fill="white"/>
<path d="M19.8943 12.8945C18.6043 12.8945 17.6506 13.4491 17.0722 14.0793V13.4091C17.0722 13.2666 16.9567 13.151 16.8141 13.151H13.738C13.5955 13.151 13.48 13.2666 13.48 13.4091V23.7279C13.48 23.8705 13.5955 23.986 13.738 23.986H16.9431C17.0856 23.986 17.2011 23.8705 17.2011 23.7279V18.6225C17.2011 16.9021 17.6684 16.2318 18.8677 16.2318C20.1738 16.2318 20.2776 17.3063 20.2776 18.711V23.728C20.2776 23.8705 20.3931 23.986 20.5357 23.986H23.7419C23.8844 23.986 23.9999 23.8705 23.9999 23.728V18.0679C23.9999 15.5097 23.5121 12.8945 19.8943 12.8945Z" fill="white"/>
</g>
<defs>
<clipPath id="clip0_1280_98">
<rect width="16" height="16" fill="white" transform="translate(8 8)"/>
</clipPath>
</defs>
</svg>
